<svg width="141" height="83" viewBox="0 0 141 83" fill="none" xmlns="http://www.w3.org/2000/svg">
<path d="M120.329 20.8111C107.072 7.55541 89.446 0.254883 70.6986 0.254883C62.997 0.254883 55.4266 1.49444 48.1979 3.93928C47.0483 4.32805 46.4316 5.57493 46.8204 6.72454C47.2091 7.87445 48.4575 8.49057 49.6056 8.10209C56.38 5.81106 63.4769 4.64943 70.6986 4.64943C83.2427 4.64943 94.9755 8.18178 104.962 14.2984L100.989 20.3186C92.1452 14.9541 81.7767 11.8627 70.6992 11.8627C59.6164 11.8627 49.2426 14.957 40.3961 20.3266C39.0669 18.3174 37.738 16.3006 36.4126 14.2776C37.8801 13.3832 39.3889 12.5388 40.9404 11.7504C42.0221 11.2008 42.4536 9.87807 41.904 8.79613C41.3544 7.7142 40.0319 7.28324 38.9497 7.83256C36.6285 9.01205 34.3829 10.3181 32.2184 11.739C32.1968 11.7522 32.1742 11.7633 32.1525 11.7774C32.1291 11.7926 32.1083 11.8102 32.0857 11.826C23.6959 17.3608 16.5551 24.6511 11.1805 33.229C4.20229 44.3668 0.513794 57.2343 0.513794 70.4403C0.513794 71.6537 1.49729 72.6375 2.71107 72.6375H37.9633C39.1771 72.6375 40.1606 71.6537 40.1606 70.4403C40.1606 69.2268 39.1771 68.243 37.9633 68.243H16.5647C17.255 51.0269 26.0142 35.8534 39.1574 26.4107C41.9603 30.6288 44.7511 34.8016 47.4927 38.9003C52.3282 46.129 57.3178 53.5898 62.3375 61.2448C61.1106 62.3915 60.1224 63.7898 59.443 65.3807C59.0463 66.3097 58.7697 67.2692 58.6115 68.2412H47.7737C46.5599 68.2412 45.5764 69.225 45.5764 70.4385C45.5764 71.652 46.5599 72.6358 47.7737 72.6358H58.7076C58.855 73.35 59.0642 74.0564 59.3416 74.7475C60.5601 77.7812 62.8868 80.159 65.8936 81.4428C67.4378 82.1019 69.0667 82.4321 70.6971 82.4321C72.2405 82.4321 73.7853 82.1362 75.2604 81.5435C78.0785 80.4118 80.243 78.3417 81.5452 75.8379L87.0844 72.6358H127.051C127.061 72.6358 127.07 72.6372 127.08 72.6372C127.089 72.6372 127.099 72.6361 127.108 72.6358H138.688C139.902 72.6358 140.886 71.652 140.886 70.4385C140.886 51.6919 133.585 34.0674 120.329 20.8111ZM12.1673 68.243H4.94409C5.62495 47.4228 15.9586 28.4993 32.7379 16.687C34.0659 18.7138 35.3969 20.7338 36.7278 22.7459C22.401 32.9799 12.8622 49.5005 12.1673 68.243ZM73.623 77.4663C71.6783 78.2473 69.546 78.2239 67.6192 77.4015C65.6923 76.5789 64.2008 75.0548 63.42 73.1104C62.639 71.166 62.6618 69.0337 63.4848 67.1068C64.3074 65.1797 65.8315 63.6885 67.7756 62.9074C68.7313 62.5236 69.718 62.342 70.6895 62.342C73.8 62.342 76.7505 64.2047 77.9789 67.263C79.5911 71.277 77.6367 75.8541 73.623 77.4663ZM82.9342 69.9595C82.909 68.5122 82.6277 67.0462 82.057 65.625C81.4866 64.2053 80.6766 62.9525 79.6948 61.8905L104.647 55.7894C104.796 55.7534 105.25 55.6423 105.481 56.218C105.711 56.792 105.307 57.0252 105.174 57.1019L82.9342 69.9595ZM94.6861 68.2418L107.374 60.9067C109.631 59.6018 110.53 57.0011 109.559 54.5818C108.588 52.1616 106.142 50.9027 103.605 51.5203L82.2147 56.7504L90.9223 43.5532C91.5906 42.5404 91.3114 41.1775 90.2986 40.509C89.2861 39.8404 87.9229 40.1196 87.2543 41.1327L75.9363 58.2852L74.6294 58.6049C71.9554 57.6952 68.9581 57.6964 66.1373 58.829C66.1031 58.8428 66.0702 58.8586 66.0363 58.8726C60.9972 51.188 55.9938 43.7062 51.1449 36.4572C48.4085 32.3665 45.6233 28.2016 42.8266 23.9931C50.9753 19.0847 60.5126 16.2575 70.6989 16.2575C80.8828 16.2575 90.4184 19.0838 98.5662 23.9902L93.0531 32.3445C92.3848 33.3573 92.664 34.7202 93.6768 35.3887C94.0495 35.6345 94.4696 35.7523 94.885 35.7523C95.5987 35.7523 96.2983 35.4051 96.7211 34.765L102.236 26.4074C115.382 35.8496 124.143 51.024 124.834 68.2418H94.6861ZM129.231 68.2418C128.536 49.4944 118.992 32.97 104.658 22.7371L108.631 16.7175C124.915 28.2482 135.754 46.983 136.455 68.2418H129.231Z" fill="black"/>
</svg>
