<svg width="112" height="112" viewBox="0 0 112 112" fill="none" xmlns="http://www.w3.org/2000/svg">
<path d="M110.061 27.0868H105.774C106.601 23.8878 106.686 20.5417 106.02 17.3051C105.354 14.0685 103.956 11.0273 101.934 8.41451C99.9108 5.80172 97.3166 3.68674 94.3498 2.23167C91.3831 0.776607 88.1227 0.0200816 84.8183 0.0200816C81.514 0.0200816 78.2535 0.776607 75.2868 2.23167C72.3201 3.68674 69.7259 5.80172 67.703 8.41451C65.6802 11.0273 64.2824 14.0685 63.6168 17.3051C62.9511 20.5417 63.0354 23.8878 63.863 27.0868H42.2646L18.352 3.17418C17.3568 2.17093 16.1733 1.37409 14.8694 0.829385C13.5655 0.28468 12.1669 0.00283327 10.7538 2.12517e-05C9.3407 -0.00279076 7.94095 0.273487 6.63489 0.812999C5.32883 1.35251 4.14217 2.14463 3.14301 3.14391C2.14385 4.14319 1.35187 5.32994 0.812512 6.63607C0.273155 7.94219 -0.00295608 9.34197 2.38659e-05 10.7551C0.00300382 12.1682 0.285016 13.5668 0.829877 14.8706C1.37474 16.1745 2.17172 17.3579 3.17508 18.3529L3.97055 19.1466C1.44899 21.9567 0.0471214 25.5948 0.0311071 29.3704V97.4339C0.0292087 99.3294 0.401161 101.207 1.12567 102.958C1.85018 104.71 2.91303 106.301 4.25337 107.642C5.59372 108.982 7.18524 110.045 8.93685 110.77C10.6885 111.494 12.5658 111.866 14.4613 111.864H110.061C110.54 111.864 110.998 111.674 111.337 111.336C111.675 110.997 111.865 110.539 111.865 110.06V28.8906C111.865 28.4122 111.675 27.9534 111.337 27.6151C110.998 27.2768 110.54 27.0868 110.061 27.0868ZM66.8915 19.5398C67.4239 14.963 69.6875 10.7633 73.2181 7.8026C76.7486 4.84186 81.2784 3.34448 85.878 3.61769C90.4776 3.8909 94.7983 5.91398 97.9535 9.27186C101.109 12.6297 102.859 17.0678 102.846 21.6755C102.861 25.7037 101.509 29.6179 99.0131 32.7795C95.8082 36.8155 93.9897 41.7771 93.8273 46.9283H90.2197V36.1056H92.0235C93.0937 36.1056 94.14 35.7883 95.0298 35.1937C95.9197 34.5991 96.6133 33.7539 97.0229 32.7651C97.4325 31.7764 97.5396 30.6883 97.3308 29.6386C97.122 28.5889 96.6066 27.6247 95.8499 26.8679C95.0931 26.1112 94.1289 25.5958 93.0792 25.387C92.0295 25.1782 90.9415 25.2854 89.9527 25.6949C88.9639 26.1045 88.1187 26.7981 87.5241 27.688C86.9295 28.5778 86.6122 29.6241 86.6122 30.6943V32.4981H83.0046V30.6943C83.0046 29.6241 82.6873 28.5778 82.0927 27.688C81.498 26.7981 80.6529 26.1045 79.6641 25.6949C78.6753 25.2854 77.5873 25.1782 76.5376 25.387C75.4879 25.5958 74.5237 26.1112 73.7669 26.8679C73.0101 27.6247 72.4948 28.5889 72.286 29.6386C72.0772 30.6883 72.1843 31.7764 72.5939 32.7651C73.0035 33.7539 73.6971 34.5991 74.5869 35.1937C75.4768 35.7883 76.523 36.1056 77.5933 36.1056H79.3971V46.9283H75.7895C75.6054 41.7247 73.7532 36.7182 70.5063 32.6478C67.6358 28.9182 66.3385 24.2135 66.8915 19.5398ZM88.4159 57.7509C88.4159 58.7077 88.0359 59.6253 87.3593 60.3018C86.6828 60.9784 85.7652 61.3584 84.8084 61.3584C83.8516 61.3584 82.934 60.9784 82.2575 60.3018C81.5809 59.6253 81.2009 58.7077 81.2009 57.7509H88.4159ZM77.5933 54.1434C77.1149 54.1434 76.6561 53.9533 76.3178 53.615C75.9796 53.2768 75.7895 52.818 75.7895 52.3396V50.5358H93.8273V52.3396C93.8273 52.818 93.6372 53.2768 93.2989 53.615C92.9607 53.9533 92.5019 54.1434 92.0235 54.1434H77.5933ZM79.3971 32.4981H77.5933C77.2366 32.4981 76.8878 32.3923 76.5912 32.1941C76.2946 31.9959 76.0634 31.7142 75.9268 31.3846C75.7903 31.055 75.7546 30.6923 75.8242 30.3424C75.8938 29.9925 76.0656 29.6711 76.3178 29.4189C76.5701 29.1666 76.8915 28.9948 77.2414 28.9252C77.5913 28.8556 77.954 28.8913 78.2836 29.0279C78.6132 29.1644 78.8949 29.3956 79.0931 29.6922C79.2913 29.9888 79.3971 30.3376 79.3971 30.6943V32.4981ZM86.6122 46.9283H83.0046V36.1056H86.6122V46.9283ZM90.2197 32.4981V30.6943C90.2197 30.3376 90.3255 29.9888 90.5237 29.6922C90.7219 29.3956 91.0036 29.1644 91.3332 29.0279C91.6628 28.8913 92.0255 28.8556 92.3754 28.9252C92.7253 28.9948 93.0467 29.1666 93.2989 29.4189C93.5512 29.6711 93.723 29.9925 93.7926 30.3424C93.8622 30.6923 93.8265 31.055 93.6899 31.3846C93.5534 31.7142 93.3222 31.9959 93.0256 32.1941C92.729 32.3923 92.3802 32.4981 92.0235 32.4981H90.2197ZM53.2586 53.2559L48.2586 51.757L51.7579 48.2577L53.2586 53.2559ZM44.3336 50.5791L39.7141 49.1938V45.1245H43.3216C43.8 45.1245 44.2588 44.9345 44.5971 44.5962C44.9354 44.2579 45.1254 43.7991 45.1254 43.3207V39.7132H49.1947L50.58 44.3344L44.3336 50.5791ZM17.0118 27.0868L20.7745 23.3241L38.9673 41.517H37.9103C37.4319 41.517 36.9731 41.707 36.6349 42.0453C36.2966 42.3835 36.1065 42.8423 36.1065 43.3207V46.1797L17.0118 27.0868ZM14.4613 24.5362L11.6005 21.6755L21.6764 11.5996L24.5372 14.4604L14.4613 24.5362ZM43.3216 36.1056C42.8433 36.1056 42.3844 36.2957 42.0462 36.6339C41.7079 36.9722 41.5179 37.431 41.5179 37.9094V38.9664L23.325 20.7736L27.0877 17.0109L46.1824 36.1056H43.3216ZM10.7636 3.63775C11.6996 3.63521 12.6268 3.81836 13.4916 4.17658C14.3563 4.53481 15.1415 5.06101 15.8015 5.72471L19.1258 9.04906L9.04997 19.1231L5.72562 15.7988C4.72897 14.8026 4.05019 13.5332 3.77516 12.1511C3.50012 10.7691 3.64119 9.3365 4.1805 8.03464C4.71982 6.73278 5.63316 5.62014 6.80497 4.83747C7.97678 4.05481 9.3544 3.63729 10.7636 3.63775ZM6.52469 21.7007L25.2839 40.4599V87.8883C25.0639 87.6394 24.8336 87.3989 24.5931 87.1668C23.2375 85.8153 21.6239 84.7502 19.8483 84.035C18.0727 83.3198 16.1714 82.9691 14.2575 83.0037C12.239 83.0417 10.2509 83.5028 8.42177 84.3573C6.59265 85.2117 4.96317 86.4405 3.63865 87.9641V29.3704C3.64877 26.5503 4.67317 23.8279 6.52469 21.7007ZM108.257 108.257H14.4613C13.027 108.257 11.6071 107.972 10.2839 107.418C8.96076 106.865 7.76081 106.054 6.75381 105.033C5.7468 104.011 4.95283 102.8 4.41805 101.469C3.88327 100.138 3.61833 98.7147 3.63865 97.2806C3.72883 94.4798 4.88162 91.8184 6.86291 89.8368C8.8442 87.8552 11.5054 86.7019 14.3062 86.6113H14.4613C17.3316 86.6113 20.0844 87.7515 22.114 89.7811C24.1437 91.8108 25.2839 94.5635 25.2839 97.4339C25.2839 97.9123 25.474 98.3711 25.8122 98.7094C26.1505 99.0476 26.6093 99.2377 27.0877 99.2377C27.5661 99.2377 28.0249 99.0476 28.3631 98.7094C28.7014 98.3711 28.8915 97.9123 28.8915 97.4339V44.0675L36.6351 51.8111C36.8462 52.0224 37.1065 52.178 37.3926 52.2638L55.4304 57.6751C55.5984 57.7251 55.7727 57.7506 55.948 57.7509C56.2292 57.7509 56.5065 57.6852 56.7577 57.559C57.0089 57.4329 57.2272 57.2497 57.3951 57.0242C57.563 56.7986 57.6758 56.537 57.7246 56.2601C57.7734 55.9832 57.7567 55.6988 57.6761 55.4294L52.2647 37.3917C52.1789 37.1056 52.0233 36.8453 51.812 36.6341L45.8722 30.6943H65.1473C65.8186 32.1659 66.653 33.5575 67.6347 34.843C70.5071 38.4152 72.1072 42.8429 72.182 47.4261V52.3396C72.182 53.7748 72.7521 55.1511 73.7669 56.166C74.7818 57.1808 76.1581 57.7509 77.5933 57.7509C77.5933 59.6645 78.3535 61.4996 79.7066 62.8527C81.0597 64.2058 82.8948 64.966 84.8084 64.966C86.722 64.966 88.5571 64.2058 89.9102 62.8527C91.2633 61.4996 92.0235 59.6645 92.0235 57.7509C93.4587 57.7509 94.835 57.1808 95.8499 56.166C96.8647 55.1511 97.4348 53.7748 97.4348 52.3396V47.4171C97.485 42.9035 99.0395 38.5357 101.852 35.0053C102.893 33.6756 103.775 32.2288 104.48 30.6943H108.257V108.257Z" fill="black"/>
</svg>
